Coordinates
version=1
nRows=14
nColumns=28
inDegrees=yes

Units are S.I. units (second, meters, Newtons, ...)
Angles are in degrees.

endheader
time	pelvis_tilt	pelvis_list	pelvis_rotation	pelvis_tx	pelvis_ty	pelvis_tz	hip_flexion_r	hip_adduction_r	hip_rotation_r	knee_angle_r	ankle_angle_r	subtalar_angle_r	mtp_angle_r	hip_flexion_l	hip_adduction_l	hip_rotation_l	knee_angle_l	socket_flexion	socket_adduction	socket_rotation	socket_tx	socket_ty	socket_tz	foot_flex	lumbar_extension	lumbar_bending	lumbar_rotation
      0.62500000	     -1.86379621	     -3.48824060	      8.44085288	     -0.01574502	      0.98934058	      0.25798178	     26.10759517	      2.35016315	     -9.26457938	     -5.86561764	     12.23983240	    -19.87218124	    -14.51514604	    -23.83669744	     -7.17875409	     17.95894014	      7.68092344	     10.77446036	      0.00000000	      0.00000000	      0.00000000	      0.00000000	      0.00000000	      7.82158064	     -8.19547002	      3.94984878	     -6.73926097
      0.62916667	     -1.62558342	     -3.44931510	      8.53332317	     -0.01577461	      0.98966279	      0.25782332	     25.89221071	      2.27055794	     -9.66496543	     -5.91334344	     11.57902262	    -19.79095417	    -11.29451153	    -24.08296037	     -7.20182264	     18.01714092	      7.68712831	     10.77269592	      0.00000000	      0.00000000	      0.00000000	      0.00000000	      0.00000000	      7.80500732	     -8.47266599	      3.94138668	     -6.81267767
      0.63333333	     -1.70519482	     -3.46456833	      8.60051771	     -0.00931549	      0.98857311	      0.25802944	     26.26553145	      2.27271600	     -9.60420362	     -6.88557601	     11.19259603	    -19.84699222	    -11.07418563	    -24.17014965	     -7.22572835	     18.04462491	      7.34827456	     10.80468851	      0.00000000	      0.00000000	      0.00000000	      0.00000000	      0.00000000	      7.72472425	     -8.31098169	      4.04463452	     -6.96364462
      0.63750000	     -1.60159888	     -3.53696205	      8.45520243	     -0.00271286	      0.98767444	      0.25849363	     26.43466068	      2.45694772	     -9.38209602	     -7.79659767	     10.41856958	    -20.00492354	     -9.33557272	    -24.52908341	     -7.23254447	     17.71905121	      7.04793161	     10.84237491	      0.00000000	      0.00000000	      0.00000000	      0.00000000	      0.00000000	      7.63880289	     -8.38286874	      4.19453974	     -6.60572715
      0.64166667	     -1.66792261	     -3.60104561	      8.53873235	      0.00385166	      0.98669854	      0.25860628	     26.79004196	      2.49173924	     -9.35572648	     -8.80242481	      9.87075929	    -20.10891620	     -8.92470878	    -24.57501575	     -7.29176221	     17.70976002	      6.60211124	     10.86587244	      0.00000000	      0.00000000	      0.00000000	      0.00000000	      0.00000000	      7.59443534	     -8.19594530	      4.38100896	     -6.87891782
      0.64583333	     -1.35470740	     -3.68358586	      8.59500890	      0.01047331	      0.98620874	      0.25867166	     26.73648046	      2.56550488	     -9.68542856	     -9.71309763	      8.20853683	    -20.30113762	     -3.88513899	    -25.06524764	     -7.39862767	     17.58150784	      6.21363808	     10.89409743	      0.00000000	      0.00000000	      0.00000000	      0.00000000	      0.00000000	      7.45575421	     -8.47754895	      4.62328497	     -6.80961137
      0.65000000	     -1.26550557	     -3.76181507	      8.57627408	      0.01705345	      0.98551933	      0.25896352	     26.92006534	      2.68118727	     -9.61045567	    -10.72086521	      7.74873815	    -20.33070069	     -3.89113856	    -25.26541389	     -7.43725077	     17.43018358	      5.70633424	     10.90516903	      0.00000000	      0.00000000	      0.00000000	      0.00000000	      0.00000000	      7.32091964	     -8.50036015	      4.82729324	     -6.86256741
      0.65416667	     -1.17458496	     -3.82189604	      8.50835609	      0.02361676	      0.98485526	      0.25932352	     27.12594258	      2.79121195	     -9.50299203	    -11.77591121	      7.25043195	    -20.32327954	     -3.76834205	    -25.45807123	     -7.43215806	     17.23975357	      5.16707177	     10.91859554	      0.00000000	      0.00000000	      0.00000000	      0.00000000	      0.00000000	      7.16629160	     -8.53193658	      4.99936886	     -6.84545320
      0.65833333	     -1.07250210	     -3.91427961	      8.44382818	      0.03026345	      0.98428671	      0.25964603	     27.29573881	      2.92904353	     -9.43749733	    -12.80484717	      6.76988415	    -20.30635778	     -3.65521787	    -25.63047255	     -7.45077342	     17.02713331	      4.57515695	     10.92221832	      0.00000000	      0.00000000	      0.00000000	      0.00000000	      0.00000000	      6.97696268	     -8.56531532	      5.21338930	     -6.81752195
      0.66250000	     -0.99235042	     -3.89749296	      8.35270163	      0.03691334	      0.98368050	      0.25994110	     27.56228806	      2.88728196	     -9.61626109	    -13.97090132	      5.49969277	    -20.22771260	      0.64960964	    -25.75595052	     -7.33132339	     16.84974696	      3.90814639	     10.92271303	      0.00000000	      0.00000000	      0.00000000	      0.00000000	      0.00000000	      6.78154325	     -8.59372124	      5.27662008	     -6.60273662
      0.66666667	     -0.88707385	     -4.05495500	      8.35913101	      0.04356942	      0.98329930	      0.26013860	     27.63363852	      3.07401542	     -9.48418773	    -14.83555786	      5.17590783	    -20.20650264	      0.62725873	    -25.85833323	     -7.44446683	     16.79120560	      3.23946959	     10.93240281	      0.00000000	      0.00000000	      0.00000000	      0.00000000	      0.00000000	      6.48816758	     -8.62679412	      5.59096950	     -6.59820574
      0.67083333	     -0.71060472	     -4.13281939	      8.14033893	      0.05036622	      0.98293033	      0.26064602	     27.78666584	      3.22113125	     -9.55401247	    -16.02533214	      4.59959604	    -20.15212658	      0.68174045	    -26.07125944	     -7.35741455	     16.30675583	      2.49887684	     10.92824256	      0.00000000	      0.00000000	      0.00000000	      0.00000000	      0.00000000	      6.28339180	     -8.72696185	      5.77831016	     -6.53735056
      0.67500000	     -0.49759679	     -4.18401536	      7.90051493	      0.05707064	      0.98265237	      0.26116301	     27.87554282	      3.35084542	     -9.51255651	    -17.19038128	      4.17049174	    -19.80514766	      1.96891692	    -26.30033786	     -7.23829388	     15.89794941	      1.73373296	     10.92432862	      0.00000000	      0.00000000	      0.00000000	      0.00000000	      0.00000000	      5.98169583	     -8.91826558	      5.90326955	     -6.01698002
      0.67916667	     -0.37159876	     -4.35363537	      7.86498962	      0.06381743	      0.98250606	      0.26139595	     27.90168585	      3.55151917	     -9.42781697	    -18.05630451	      3.85577657	    -19.76328926	      1.97968875	    -26.33901150	     -7.32242878	     15.75653059	      0.89910707	     10.92032038	      0.00000000	      0.00000000	      0.00000000	      0.00000000	      0.00000000	      5.61042331	     -8.94806190	      6.22818441	     -6.03512631
